<?xml version="1.0" encoding="UTF-8" standalone="no"?>
<svg
   width="39"
   height="39"
   viewBox="0 0 39 39"
   fill="none"
   version="1.1"
   id="svg3"
   sodipodi:docname="icon-hobbies.svg"
   inkscape:version="1.3.2 (091e20e, 2023-11-25, custom)"
   xmlns:inkscape="http://www.inkscape.org/namespaces/inkscape"
   xmlns:sodipodi="http://sodipodi.sourceforge.net/DTD/sodipodi-0.dtd"
   xmlns="http://www.w3.org/2000/svg"
   xmlns:svg="http://www.w3.org/2000/svg">
  <defs
     id="defs3" />
  <sodipodi:namedview
     id="namedview3"
     pagecolor="#ffffff"
     bordercolor="#000000"
     borderopacity="0.25"
     inkscape:showpageshadow="2"
     inkscape:pageopacity="0.0"
     inkscape:pagecheckerboard="0"
     inkscape:deskcolor="#d1d1d1"
     inkscape:zoom="15.358974"
     inkscape:cx="19.467446"
     inkscape:cy="19.5"
     inkscape:window-width="1440"
     inkscape:window-height="837"
     inkscape:window-x="-8"
     inkscape:window-y="-8"
     inkscape:window-maximized="1"
     inkscape:current-layer="svg3" />
  <path
     d="M8.125 29.25H4.875C4.01305 29.25 3.1864 28.9076 2.5769 28.2981C1.96741 27.6886 1.625 26.862 1.625 26V13C1.625 12.138 1.96741 11.3114 2.5769 10.7019C3.1864 10.0924 4.01305 9.75 4.875 9.75H10.0588M24.375 9.75H27.625C28.487 9.75 29.3136 10.0924 29.9231 10.7019C30.5326 11.3114 30.875 12.138 30.875 13V26C30.875 26.862 30.5326 27.6886 29.9231 28.2981C29.3136 28.9076 28.487 29.25 27.625 29.25H22.4413"
     stroke="#08e71a"
     stroke-width="3"
     stroke-linecap="round"
     stroke-linejoin="round"
     id="path1" />
  <path
     d="M37.375 21.125V17.875"
     stroke="#08e71a"
     stroke-width="3"
     stroke-linecap="round"
     stroke-linejoin="round"
     id="path2" />
  <path
     d="M17.875 9.75L11.375 19.5H21.125L14.625 29.25"
     stroke="#08e71a"
     stroke-width="3"
     stroke-linecap="round"
     stroke-linejoin="round"
     id="path3" />
</svg>
