<?xml version="1.0" encoding="UTF-8" standalone="no"?>
<svg
   width="46"
   height="46"
   viewBox="0 0 46 46"
   fill="none"
   version="1.1"
   id="svg1"
   sodipodi:docname="icon-linkedincont.svg"
   inkscape:version="1.3.2 (091e20e, 2023-11-25, custom)"
   xmlns:inkscape="http://www.inkscape.org/namespaces/inkscape"
   xmlns:sodipodi="http://sodipodi.sourceforge.net/DTD/sodipodi-0.dtd"
   xmlns="http://www.w3.org/2000/svg"
   xmlns:svg="http://www.w3.org/2000/svg">
  <defs
     id="defs1" />
  <sodipodi:namedview
     id="namedview1"
     pagecolor="#ffffff"
     bordercolor="#000000"
     borderopacity="0.25"
     inkscape:showpageshadow="2"
     inkscape:pageopacity="0.0"
     inkscape:pagecheckerboard="0"
     inkscape:deskcolor="#d1d1d1"
     inkscape:zoom="13.021739"
     inkscape:cx="22.961603"
     inkscape:cy="23"
     inkscape:window-width="1440"
     inkscape:window-height="837"
     inkscape:window-x="-8"
     inkscape:window-y="-8"
     inkscape:window-maximized="1"
     inkscape:current-layer="svg1" />
  <path
     d="M24.9167 40.25H17.25V17.25H24.9167V21.0833C26.5509 19.0042 29.0291 17.7648 31.6729 17.7042C36.4274 17.7306 40.2638 21.5996 40.25 26.3542V40.25H32.5833V27.3125C32.2767 25.1709 30.44 23.5819 28.2766 23.5865C27.3303 23.6164 26.437 24.0307 25.803 24.7339C25.169 25.437 24.8489 26.3682 24.9167 27.3125V40.25ZM13.4167 40.25H5.75V17.25H13.4167V40.25ZM9.58333 13.4167C7.46624 13.4167 5.75 11.7004 5.75 9.58333C5.75 7.46624 7.46624 5.75 9.58333 5.75C11.7004 5.75 13.4167 7.46624 13.4167 9.58333C13.4167 10.6 13.0128 11.575 12.2939 12.2939C11.575 13.0128 10.6 13.4167 9.58333 13.4167Z"
     fill="#08e71a"
     id="path1" />
</svg>
