<?xml version="1.0" encoding="UTF-8" standalone="no"?>
<svg
   width="24"
   height="24"
   viewBox="0 0 24 24"
   fill="none"
   version="1.1"
   id="svg1"
   sodipodi:docname="icon-github.svg"
   inkscape:version="1.3.2 (091e20e, 2023-11-25, custom)"
   xmlns:inkscape="http://www.inkscape.org/namespaces/inkscape"
   xmlns:sodipodi="http://sodipodi.sourceforge.net/DTD/sodipodi-0.dtd"
   xmlns="http://www.w3.org/2000/svg"
   xmlns:svg="http://www.w3.org/2000/svg">
  <sodipodi:namedview
     id="namedview1"
     pagecolor="#ffffff"
     bordercolor="#000000"
     borderopacity="0.25"
     inkscape:showpageshadow="2"
     inkscape:pageopacity="0.0"
     inkscape:pagecheckerboard="0"
     inkscape:deskcolor="#d1d1d1"
     inkscape:zoom="24.958333"
     inkscape:cx="11.979967"
     inkscape:cy="12"
     inkscape:window-width="1440"
     inkscape:window-height="837"
     inkscape:window-x="-8"
     inkscape:window-y="-8"
     inkscape:window-maximized="1"
     inkscape:current-layer="g1" />
  <g
     clip-path="url(#clip0_45454_397)"
     id="g1">
    <path
       d="M9 18.9999C4 20.4999 4 16.4999 2 15.9999M16 21.9999V18.1299C16.0375 17.6531 15.9731 17.1737 15.811 16.7237C15.6489 16.2737 15.3929 15.8634 15.06 15.5199C18.2 15.1699 21.5 13.9799 21.5 8.51994C21.4997 7.12376 20.9627 5.78114 20 4.76994C20.4559 3.54844 20.4236 2.19829 19.91 0.999938C19.91 0.999938 18.73 0.649938 16 2.47994C13.708 1.85876 11.292 1.85876 9 2.47994C6.27 0.649938 5.09 0.999938 5.09 0.999938C4.57638 2.19829 4.54414 3.54844 5 4.76994C4.03013 5.78864 3.49252 7.1434 3.5 8.54994C3.5 13.9699 6.8 15.1599 9.94 15.5499C9.611 15.8899 9.35726 16.2953 9.19531 16.7399C9.03335 17.1844 8.96681 17.658 9 18.1299V21.9999"
       stroke="#08e71a"
       stroke-width="2"
       stroke-linecap="round"
       stroke-linejoin="round"
       id="path1" />
  </g>
  <defs
     id="defs1">
    <clipPath
       id="clip0_45454_397">
      <rect
         width="24"
         height="24"
         fill="white"
         id="rect1" />
    </clipPath>
  </defs>
</svg>
